Coordinates
version=1
nRows=9
nColumns=63
inDegrees=yes

Units are S.I. units (second, meters, Newtons, ...)
If the header above contains a line with 'inDegrees', this indicates whether rotational values are in degrees (yes) or radians (no).

endheader
time	pelvis_tilt	pelvis_list	pelvis_rotation	pelvis_tx	pelvis_ty	pelvis_tz	hip_flexion_r	hip_adduction_r	hip_rotation_r	knee_angle_r	knee_angle_r_beta	ankle_angle_r	subtalar_angle_r	mtp_angle_r	hip_flexion_l	hip_adduction_l	hip_rotation_l	knee_angle_l	knee_angle_l_beta	ankle_angle_l	subtalar_angle_l	mtp_angle_l	L5_S1_Flex_Ext	L5_S1_Lat_Bending	L5_S1_axial_rotation	L4_L5_Flex_Ext	L4_L5_Lat_Bending	L4_L5_axial_rotation	L3_L4_Flex_Ext	L3_L4_Lat_Bending	L3_L4_axial_rotation	L2_L3_Flex_Ext	L2_L3_Lat_Bending	L2_L3_axial_rotation	L1_L2_Flex_Ext	L1_L2_Lat_Bending	L1_L2_axial_rotation	L1_T12_Flex_Ext	L1_T12_Lat_Bending	L1_T12_axial_rotation	Abs_r3	Abs_r2	Abs_r1	Abs_t1	Abs_t2	neck_flexion	neck_bending	neck_rotation	arm_flex_r	arm_add_r	arm_rot_r	elbow_flex_r	pro_sup_r	wrist_flex_r	wrist_dev_r	arm_flex_l	arm_add_l	arm_rot_l	elbow_flex_l	pro_sup_l	wrist_flex_l	wrist_dev_l
      1.02083333	     -6.01023286	     -4.48382768	    102.66318289	      0.06502132	      0.53528986	      0.76262579	      0.85788631	     -2.34687264	    -10.77174660	     11.38289618	      0.19866902	     32.15707301	      2.77903570	      0.00000000	      1.47548909	      4.02564500	      4.86165966	      9.26376650	      0.16168323	     31.70285348	     -3.54554045	      0.00000000	      0.19643379	     -0.31315220	     -0.43499168	      0.36479719	     -0.41649243	     -0.46217866	      0.32272108	     -0.76139826	     -0.46217866	      0.22450418	     -0.76139826	     -0.38061772	      0.18240842	     -0.63857997	     -0.35343074	      0.11224227	     -0.48507276	     -0.32624376	      1.40310693	     -3.54244034	     -2.41929321	      0.00000000	      0.00000000	     15.86808720	      1.75768461	      3.45165797	    -30.31896120	    -59.72218721	     45.03143748	    117.13063600	     89.72176755	    -17.47427393	    -24.11333172	    -12.38728139	    -62.76923091	     60.29076764	    117.34833532	     89.13124752	     -6.77566719	    -14.26469610
      1.04166667	     -6.08039339	     -4.32891495	    102.72286579	      0.06534211	      0.53440572	      0.76125100	      0.81382595	     -2.36261126	    -10.86136194	     11.78573877	      0.20569995	     32.42486194	      2.66430877	      0.00000000	      1.69517407	      4.03831329	      4.80705944	     10.20601584	      0.17812858	     32.17413017	     -3.70322868	      0.00000000	      0.12527052	     -0.34099727	     -0.39560732	      0.23263988	     -0.45352637	     -0.42033277	      0.20580693	     -0.82910076	     -0.42033277	      0.14317168	     -0.82910076	     -0.34615640	      0.11632620	     -0.69536163	     -0.32143094	      0.07157957	     -0.52820477	     -0.29670549	      0.89479479	     -3.85742932	     -2.20024921	      0.00000000	      0.00000000	     15.11376632	      2.27922055	      2.81951333	    -30.75877962	    -57.95534602	     45.59865992	    116.47667342	     89.71215302	    -18.02662257	    -24.29288551	    -12.59953116	    -61.77337555	     60.09992292	    117.23351803	     89.18850650	     -7.82341891	    -15.62968440
      1.06250000	     -6.27630633	     -4.54721770	    102.60299249	      0.06567904	      0.53255897	      0.76004765	      1.21569465	     -2.55275212	    -10.15643242	     12.25785089	      0.21393986	     32.84790248	      1.84016682	      0.00000000	      2.35877140	      4.25605582	      4.45714126	     11.29965861	      0.19721625	     32.84511420	     -3.59714127	      0.00000000	      0.10006934	     -0.39289700	     -0.24860142	      0.18583877	     -0.52255301	     -0.26413901	      0.16440392	     -0.95528977	     -0.26413901	      0.11436925	     -0.95528977	     -0.21752624	      0.09292439	     -0.80119557	     -0.20198865	      0.05717962	     -0.60859746	     -0.18645106	      0.71478528	     -4.44452946	     -1.38264651	      0.00000000	      0.00000000	     14.42172248	      2.72333040	      1.48715806	    -32.53814278	    -55.49893239	     44.47297512	    115.75798529	     89.69910363	    -18.97934351	    -24.41223467	    -10.60357028	    -60.82723807	     63.45488175	    116.36060801	     89.15891232	    -13.99483732	    -20.08058491
      1.08333333	     -6.29457503	     -4.64409896	    102.32492885	      0.06611130	      0.53021632	      0.75898463	      1.61259290	     -2.59253910	     -9.78603513	     12.86478280	      0.22453282	     33.48114985	      1.68914327	      0.00000000	      3.08700875	      4.29104912	      4.21804445	     12.66835209	      0.22110445	     33.54507187	     -3.96445058	      0.00000000	      0.05976214	     -0.41619105	     -0.14912422	      0.11098427	     -0.55353409	     -0.15844448	      0.09818322	     -1.01192691	     -0.15844448	      0.06830215	     -1.01192691	     -0.13048369	      0.05549512	     -0.84869678	     -0.12116343	      0.03414809	     -0.64467993	     -0.11184316	      0.42687498	     -4.70803636	     -0.82938415	      0.00000000	      0.00000000	     13.35494794	      2.92528390	      0.75410350	    -34.06251281	    -53.05760727	     42.79761369	    115.05698047	     89.69079287	    -18.97691222	    -24.48391095	    -11.06055161	    -59.74543246	     63.71387254	    115.67042217	     89.16451407	    -16.41594781	    -22.16760957
      1.10416667	     -6.21132011	     -4.47663080	    101.83964943	      0.06644957	      0.52776605	      0.75865452	      1.83864541	     -2.46653179	     -9.05175691	     13.50410533	      0.23569110	     34.11345459	      1.28674455	      0.00000000	      3.65857476	      4.16397502	      3.66382650	     14.15317230	      0.24701946	     34.45543886	     -4.20216725	      0.00000000	     -0.02214793	     -0.40298825	      0.04748694	     -0.04113093	     -0.53597437	      0.05045487	     -0.03638684	     -0.97982563	      0.05045487	     -0.02531287	     -0.97982563	      0.04155107	     -0.02056657	     -0.82177364	      0.03858314	     -0.01265533	     -0.62422880	      0.03561520	     -0.15820047	     -4.55868368	      0.26410809	      0.00000000	      0.00000000	     11.81076358	      2.56051436	      0.44237534	    -36.18635441	    -50.52722316	     39.90980954	    114.51821493	     89.69429931	    -17.63295303	    -24.51608155	     -8.99075352	    -58.89992412	     67.22037219	    114.94417291	     89.18363695	    -21.38818660	    -23.30955038
      1.12500000	     -6.20893148	     -4.39327199	    101.53708861	      0.06646797	      0.52491127	      0.75882318	      2.18720950	     -2.50978734	     -8.88053835	     14.29102960	      0.24942552	     34.95152166	      1.29020378	      0.00000000	      4.39780895	      4.16470159	      3.43161839	     15.79678022	      0.27570583	     35.35788300	     -4.53633906	      0.00000000	     -0.09420742	     -0.39504789	      0.06897150	     -0.17495260	     -0.52541369	      0.07328222	     -0.15477337	     -0.96051944	      0.07328222	     -0.10766966	     -0.96051944	      0.06035006	     -0.08748101	     -0.80558165	      0.05603934	     -0.05383012	     -0.61192918	      0.05172862	     -0.67291419	     -4.46886073	      0.38359878	      0.00000000	      0.00000000	     10.13140882	      2.28860995	      0.84784404	    -36.39131049	    -48.98822240	     39.09424232	    114.17147237	     89.71172412	    -17.89666025	    -24.54596592	     -9.71730248	    -58.20804395	     67.53476143	    114.21774382	     89.23082058	    -22.40114458	    -23.69589194
      1.14583333	     -5.91102960	     -4.55191100	    101.00317509	      0.06628151	      0.52130345	      0.75928329	      2.96561614	     -2.35646182	     -8.78184994	     15.25113812	      0.26618257	     35.84769713	      1.48997095	      0.00000000	      5.56960091	      3.91074593	      2.85791661	     17.66190908	      0.30825847	     36.46626305	     -4.86657136	      0.00000000	     -0.11741499	     -0.33953140	      0.09700666	     -0.21805137	     -0.45157676	      0.10306957	     -0.19290108	     -0.82553663	      0.10306957	     -0.13419359	     -0.82553663	      0.08488082	     -0.10903156	     -0.69237242	      0.07881791	     -0.06709092	     -0.52593413	      0.07275499	     -0.83868351	     -3.84084705	      0.53952192	      0.00000000	      0.00000000	      8.50584342	      1.50977780	      2.20877101	    -36.54214923	    -48.26819990	     38.48672533	    114.10077314	     89.72546451	    -17.80674302	    -24.57134580	    -10.62972405	    -57.48001090	     68.18013942	    113.45058027	     89.29962945	    -24.53649567	    -23.91874902
      1.16666667	     -5.85229495	     -4.57968444	    100.54688996	      0.06610818	      0.51789544	      0.75995642	      3.49831166	     -2.42033273	     -8.72687347	     16.10600733	      0.28110286	     36.81379104	      1.69950178	      0.00000000	      6.51377910	      3.86265380	      2.33756873	     19.41808793	      0.33890957	     37.48246362	     -5.08287912	      0.00000000	     -0.17257775	     -0.30836438	      0.11125052	     -0.32049413	     -0.41012462	      0.11820368	     -0.28352798	     -0.74975714	      0.11820368	     -0.19723911	     -0.74975714	      0.09734420	     -0.16025570	     -0.62881663	      0.09039105	     -0.09861092	     -0.47765642	      0.08343789	     -1.23270559	     -3.48827948	      0.61874200	      0.00000000	      0.00000000	      6.68241099	      0.63120676	      3.39228812	    -36.39438946	    -47.96392882	     38.47697611	    113.93006358	     89.73654067	    -17.78238876	    -24.57467841	    -11.38921475	    -57.12751103	     68.61154841	    112.83481514	     89.36588191	    -25.50463942	    -23.99467635
      1.18750000	     -5.74812209	     -4.74934486	    100.03651628	      0.06599787	      0.51414119	      0.76062215	      4.22458448	     -2.48775880	     -8.76879797	     17.04806048	      0.29754479	     37.89304607	      2.02712683	      0.00000000	      7.59684733	      3.74447749	      1.66904435	     21.14688870	      0.36908283	     38.52485933	     -5.06829528	      0.00000000	     -0.20456459	     -0.27615132	      0.15118076	     -0.37989690	     -0.36728126	      0.16062956	     -0.33607917	     -0.67143432	      0.16062956	     -0.23379687	     -0.67143432	      0.13228317	     -0.18995868	     -0.56312777	      0.12283437	     -0.11688821	     -0.42775840	      0.11338557	     -1.46118441	     -3.12387897	      0.84082204	      0.00000000	      0.00000000	      4.84704915	     -0.29801645	      4.51043418	    -36.38263967	    -47.94244536	     38.83426944	    113.57145502	     89.73946343	    -17.85267822	    -24.57729993	    -12.31434871	    -56.93451671	     68.50726719	    112.53749773	     89.41855337	    -25.99771997	    -24.01350332
